<svg id="Layer_1" data-name="Layer 1" xmlns="http://www.w3.org/2000/svg" viewBox="0 0 53.56 17.44"><defs><style>.cls-1{fill:#fff;}</style></defs><path class="cls-1" d="M275.24,241.13h2v8a15.09,15.09,0,0,1-1.73,0L273,245.19h0c0,.15,0,.31,0,.47v3.46h-2c0-.08,0-7.77,0-8h1.73l2.52,4h0c0-.17,0-.33,0-.5v-3.45Z" transform="translate(-223.66 -241.06)"/><path class="cls-1" d="M225.63,245.21v3.93h-2v-8h1.61a.18.18,0,0,1,.17.1c.66,1,1.33,2.08,2,3.13l.42.66.07.07c0-.16,0-.33,0-.49v-3.46h2v8h-1.62a.17.17,0,0,1-.16-.09l-1.38-2.17-1-1.6-.06-.09Z" transform="translate(-223.66 -241.06)"/><path class="cls-1" d="M242.35,245.82l1.72,3.32h-2.31l-1.41-3h-.64v3c-.12,0-1.64,0-2,0,0-.09,0-7.77,0-8h3.09a3.35,3.35,0,0,1,1.21.21,2.56,2.56,0,0,1,1.46,3.22,2.29,2.29,0,0,1-1.05,1.2l-.08.05Zm-2.64-2.9v1.57l0,0c.38,0,.77,0,1.16,0a.78.78,0,0,0,.74-.78.8.8,0,0,0-.8-.81h-1.14Z" transform="translate(-223.66 -241.06)"/><path class="cls-1" d="M270.44,249.14h-2.3l-1.42-3h-.64c0,.33,0,.66,0,1v2h-2v-8h3.1a3.18,3.18,0,0,1,1.39.29,2.41,2.41,0,0,1,1.36,1.75,2.44,2.44,0,0,1,0,1.23,2.35,2.35,0,0,1-1.06,1.34l-.12.06,0,0C269.28,246.92,269.86,248,270.44,249.14Zm-4.36-4.63h1.11l.32-.06a.79.79,0,0,0,.5-.88.8.8,0,0,0-.79-.66h-1.14Z" transform="translate(-223.66 -241.06)"/><path class="cls-1" d="M256.63,249.14h-2V246h-2.08v3.16h-2v-8h2v3.05a20.5,20.5,0,0,0,2.08,0v-3.06h2Z" transform="translate(-223.66 -241.06)"/><path class="cls-1" d="M236.87,245.15c0,.33,0,.66,0,1a4.27,4.27,0,0,1-.2,1.22,2.64,2.64,0,0,1-1,1.29,2.72,2.72,0,0,1-1.5.55,3.53,3.53,0,0,1-1.51-.17,3,3,0,0,1-1-.6,2.69,2.69,0,0,1-.87-1.79,7,7,0,0,1-.06-.92v-1.26a5.91,5.91,0,0,1,.12-1.18,2.59,2.59,0,0,1,.84-1.46,2.8,2.8,0,0,1,1.36-.69,3.54,3.54,0,0,1,2,.17,2.79,2.79,0,0,1,.83.53,2.74,2.74,0,0,1,.9,1.81A10.84,10.84,0,0,1,236.87,245.15Zm-4.11,0h0c0,.33,0,.66,0,1a5.58,5.58,0,0,0,.09.59.9.9,0,0,0,.28.48,1,1,0,0,0,.91.22.88.88,0,0,0,.67-.55,1.82,1.82,0,0,0,.11-.46,7.78,7.78,0,0,0,.06-1.18c0-.32,0-.63,0-.94a4.2,4.2,0,0,0-.06-.61,1,1,0,0,0-2,0c0,.25-.06.5-.08.75S232.76,244.89,232.76,245.14Z" transform="translate(-223.66 -241.06)"/><path class="cls-1" d="M257.73,241.13h5.43a16.86,16.86,0,0,1,0,1.76h-3.44a9.93,9.93,0,0,0,0,1.34h2.94V246h-3v1.37l0,0h3.44a16.77,16.77,0,0,1,0,1.75h-5.44Z" transform="translate(-223.66 -241.06)"/><path class="cls-1" d="M244.1,242.9v-1.77H250a17.25,17.25,0,0,1,0,1.77h-2c0,.2,0,.39,0,.58v5.67h-2v-6.23c-.34,0-.66,0-1,0Z" transform="translate(-223.66 -241.06)"/><path class="cls-1" d="M226.34,254l1.37,2.61H227l-1.3-2.55h-1.38v2.55h-.62v-5.77H226a1.55,1.55,0,0,1,1.34.72,1.26,1.26,0,0,1,.23.78,2.58,2.58,0,0,1,0,.48,1.4,1.4,0,0,1-1,1.11Zm-2.05-2.61v2.11h1.48a2.33,2.33,0,0,0,.37,0,1,1,0,0,0,.78-.67,1.41,1.41,0,0,0,0-.46,1,1,0,0,0-.72-.88,2.33,2.33,0,0,0-.53-.07h-1.42Z" transform="translate(-223.66 -241.06)"/><path class="cls-1" d="M234.7,256.18a1.17,1.17,0,0,1-.58.4,1.61,1.61,0,0,1-1.27-.12,1.18,1.18,0,0,1-.5-.6,2.73,2.73,0,0,1-.19-.89,4.57,4.57,0,0,1,.05-1.11,2.76,2.76,0,0,1,.16-.51,1.2,1.2,0,0,1,1-.73,1.62,1.62,0,0,1,.62,0,1.11,1.11,0,0,1,.57.29l.12.13h0v-.38h.59s0,.07,0,.1c0,1.36,0,2.71,0,4.07a1.67,1.67,0,0,1-.41,1.14,1.42,1.42,0,0,1-.83.47,2.13,2.13,0,0,1-1.2-.09,1.61,1.61,0,0,1-.58-.42l.19-.19.18-.19.21.17a1.25,1.25,0,0,0,1.25.14.86.86,0,0,0,.52-.63,2.34,2.34,0,0,0,.08-.53c0-.17,0-.35,0-.52Zm0-1.48c0-.23,0-.39,0-.55a1.48,1.48,0,0,0-.13-.51.8.8,0,0,0-.54-.47,1.28,1.28,0,0,0-.55,0,.75.75,0,0,0-.5.35,1.22,1.22,0,0,0-.14.33,3.07,3.07,0,0,0-.08,1,2,2,0,0,0,.13.68.77.77,0,0,0,.33.4,1,1,0,0,0,1.33-.31.87.87,0,0,0,.1-.31C234.69,255.11,234.72,254.87,234.74,254.7Z" transform="translate(-223.66 -241.06)"/><path class="cls-1" d="M270.06,258l.39-.38.16.13a1.19,1.19,0,0,0,.93.26,1.17,1.17,0,0,0,.49-.15,1,1,0,0,0,.44-.72,5.43,5.43,0,0,0,0-.91c-.05,0-.08.05-.1.08a1.24,1.24,0,0,1-.89.39,1.66,1.66,0,0,1-.7-.11,1.22,1.22,0,0,1-.7-.71,2.36,2.36,0,0,1-.15-.58,4.86,4.86,0,0,1,.05-1.52,1.46,1.46,0,0,1,.38-.75,1.27,1.27,0,0,1,.84-.37,2.64,2.64,0,0,1,.49,0,1.12,1.12,0,0,1,.72.39l.07.07v-.42h.59v4.09a1.88,1.88,0,0,1-.2.9,1.43,1.43,0,0,1-.88.75,2.11,2.11,0,0,1-1.29,0A1.9,1.9,0,0,1,270.06,258Zm2.46-3.33c0-.23,0-.46-.08-.68a1,1,0,0,0-.27-.57,1,1,0,0,0-1.29,0,1,1,0,0,0-.28.51,3.5,3.5,0,0,0,0,1.33,1.1,1.1,0,0,0,.06.26.85.85,0,0,0,.91.65.83.83,0,0,0,.86-.65A2.94,2.94,0,0,0,272.52,254.62Z" transform="translate(-223.66 -241.06)"/><path class="cls-1" d="M257.49,252.55h-.64c0-.11-.07-.21-.11-.31a1.37,1.37,0,0,0-2.15-.55,1.3,1.3,0,0,0-.47.93c0,.2,0,.4,0,.6s0,.42,0,.62,0,.7.05,1a1.25,1.25,0,0,0,.68,1.09,1.39,1.39,0,0,0,2-.7c0-.1.06-.19.1-.29h.61v.08a1.95,1.95,0,0,1-1.75,1.64,2.23,2.23,0,0,1-1.36-.29,1.75,1.75,0,0,1-.88-1.37c0-.26,0-.53,0-.8s0-.77,0-1.16,0-.5.07-.75a1.63,1.63,0,0,1,.63-1.06,2.17,2.17,0,0,1,2.49-.12,2,2,0,0,1,.82,1.24A1.57,1.57,0,0,1,257.49,252.55Z" transform="translate(-223.66 -241.06)"/><path class="cls-1" d="M248.35,256.3s-.06,0-.07.05a1.3,1.3,0,0,1-.79.35,2.83,2.83,0,0,1-.87-.05,1.07,1.07,0,0,1-.86-1,1.32,1.32,0,0,1,.09-.62,1,1,0,0,1,.76-.61,1.91,1.91,0,0,1,.48-.06h1.25c0-.18,0-.34,0-.51l0-.17a.67.67,0,0,0-.51-.51,2,2,0,0,0-.91,0,.89.89,0,0,0-.5.33l-.08.08-.4-.36a1.21,1.21,0,0,1,.75-.53,2.7,2.7,0,0,1,1.49,0,1.11,1.11,0,0,1,.77,1c0,.11,0,.21,0,.32v2.64h-.59Zm0-1.47h0c-.44,0-.88,0-1.32,0a.62.62,0,0,0-.64.65.56.56,0,0,0,.46.64,1.84,1.84,0,0,0,.4.06,1.64,1.64,0,0,0,.58-.06.69.69,0,0,0,.53-.57.88.88,0,0,0,0-.17C248.34,255.2,248.33,255,248.33,254.83Z" transform="translate(-223.66 -241.06)"/><path class="cls-1" d="M276.75,255.73l.4.35a2.61,2.61,0,0,1-.31.28,1.89,1.89,0,0,1-1.28.35,1.75,1.75,0,0,1-.81-.22,1.53,1.53,0,0,1-.72-1,3.55,3.55,0,0,1-.1-.64,3.29,3.29,0,0,1,.07-.94,2,2,0,0,1,.32-.74,1.47,1.47,0,0,1,1.05-.58,2,2,0,0,1,.86.11,1.42,1.42,0,0,1,.69.59,2,2,0,0,1,.27.8c0,.21,0,.42,0,.64,0,0,0,0,0,.06h-2.69c0,.2,0,.38.08.55a1,1,0,0,0,.9.81,1.29,1.29,0,0,0,1.15-.36Zm-2.22-1.37h2.09a1.18,1.18,0,0,0-.47-1.07,1,1,0,0,0-1.12,0A1.15,1.15,0,0,0,274.53,254.36Z" transform="translate(-223.66 -241.06)"/><path class="cls-1" d="M231.47,256.08a1.76,1.76,0,0,1-1.1.6,2.37,2.37,0,0,1-.92,0,1.43,1.43,0,0,1-1-.85,2.61,2.61,0,0,1-.2-.95,4.34,4.34,0,0,1,.06-.88,2,2,0,0,1,.45-.91,1.42,1.42,0,0,1,.84-.43,1.88,1.88,0,0,1,.91.08,1.49,1.49,0,0,1,.84.83,2.89,2.89,0,0,1,.19,1.28h-2.68a1.18,1.18,0,0,0,.89,1.35,1.37,1.37,0,0,0,1.25-.37l.06-.06Zm-.53-1.72a3,3,0,0,0,0-.31,1.19,1.19,0,0,0-.21-.55,1.06,1.06,0,0,0-1.07-.36,1,1,0,0,0-.42.23,1.22,1.22,0,0,0-.36,1l0,0Z" transform="translate(-223.66 -241.06)"/><path class="cls-1" d="M268.84,255.73l.41.35a2,2,0,0,1-.72.51,2.21,2.21,0,0,1-1.5,0,1.46,1.46,0,0,1-.85-.9,3,3,0,0,1-.15-1.18,2.7,2.7,0,0,1,.18-.93,1.48,1.48,0,0,1,1.44-1,1.72,1.72,0,0,1,.83.2,1.49,1.49,0,0,1,.69.83,2.92,2.92,0,0,1,.13,1.18h-2.68a1.4,1.4,0,0,0,.42,1.12.9.9,0,0,0,.48.23,1.34,1.34,0,0,0,1.22-.34Zm-.12-1.37c0-.14,0-.26,0-.39a1,1,0,0,0-1.3-.82,1,1,0,0,0-.73.9,3,3,0,0,0,0,.31Z" transform="translate(-223.66 -241.06)"/><path class="cls-1" d="M261.41,254.65a4.27,4.27,0,0,1-.09.81,1.62,1.62,0,0,1-2.75.75,1.61,1.61,0,0,1-.38-.76,5.14,5.14,0,0,1-.06-.55,3.31,3.31,0,0,1,0-.89,1.89,1.89,0,0,1,.24-.69,1.42,1.42,0,0,1,.92-.66,1.69,1.69,0,0,1,1.13.08,1.51,1.51,0,0,1,.88,1.16A6.36,6.36,0,0,1,261.41,254.65Zm-.6,0c0-.2,0-.39-.05-.59a1.42,1.42,0,0,0-.05-.22,1,1,0,0,0-1.92.07,3.56,3.56,0,0,0,0,1.49.89.89,0,0,0,.4.6,1,1,0,0,0,.62.17,1,1,0,0,0,.9-.67A3.47,3.47,0,0,0,260.81,254.65Z" transform="translate(-223.66 -241.06)"/><path class="cls-1" d="M241.09,254.54a3.46,3.46,0,0,1-.14,1.13,1.49,1.49,0,0,1-1.19,1,1.7,1.7,0,0,1-1.11-.16,1.48,1.48,0,0,1-.77-1,3.91,3.91,0,0,1-.06-1.18,2.39,2.39,0,0,1,.16-.75,1.41,1.41,0,0,1,1-.88,1.62,1.62,0,0,1,1.24.14,1.46,1.46,0,0,1,.77,1.12C241.06,254.16,241.08,254.41,241.09,254.54Zm-.6.06c0-.13,0-.31,0-.5a1.1,1.1,0,0,0-.19-.55.94.94,0,0,0-.93-.4.93.93,0,0,0-.85.74,2.32,2.32,0,0,0-.06.44,3.41,3.41,0,0,0,0,1,1,1,0,0,0,1,.83,1,1,0,0,0,.93-.7A3.32,3.32,0,0,0,240.49,254.6Z" transform="translate(-223.66 -241.06)"/><path class="cls-1" d="M241.92,256.64v-4h.59v.38l.24-.19a1.61,1.61,0,0,1,1.3-.21,1.24,1.24,0,0,1,1,1,1.72,1.72,0,0,1,0,.39v2.55h-.6v-.15c0-.75,0-1.5,0-2.26a1.82,1.82,0,0,0-.06-.46.79.79,0,0,0-.6-.59,1.14,1.14,0,0,0-.58,0,.9.9,0,0,0-.71.84,1.62,1.62,0,0,0,0,.22v2.41A1.87,1.87,0,0,1,241.92,256.64Z" transform="translate(-223.66 -241.06)"/><path class="cls-1" d="M251.37,256.14v.5h-.09a3.09,3.09,0,0,1-.43,0,.9.9,0,0,1-.91-.8c0-.1,0-.2,0-.29v-4.68h.6v4.67a1.23,1.23,0,0,0,0,.2.42.42,0,0,0,.44.39Z" transform="translate(-223.66 -241.06)"/><path class="cls-1" d="M263.65,256.15v.5a1.47,1.47,0,0,1-.21,0,3.49,3.49,0,0,1-.46,0,.89.89,0,0,1-.75-.84,3.39,3.39,0,0,1,0-.45c0-1.43,0-2.87,0-4.31v-.16h.6v4.56a1.55,1.55,0,0,0,0,.31.39.39,0,0,0,.38.38h.44Z" transform="translate(-223.66 -241.06)"/><path class="cls-1" d="M264.21,250.87h.6v4.55c0,.11,0,.22,0,.33a.4.4,0,0,0,.4.37h.42v.51a3.23,3.23,0,0,1-.76,0,.9.9,0,0,1-.66-.83c0-.15,0-.3,0-.46v-4.46Z" transform="translate(-223.66 -241.06)"/><path class="cls-1" d="M237,256.65h-.57v-4H237Z" transform="translate(-223.66 -241.06)"/><path class="cls-1" d="M236.34,250.86H237v.66h-.66Z" transform="translate(-223.66 -241.06)"/></svg>